# xmcd
#
# Track frame offsets:
#	150
#	32798
#	57327
#	79276
#	110740
#	126310
#	151836
#	172536
#	192638
#	211540
#	238692
#	268704
#	290376
#	328009
#
# Disc length: 4674 seconds
#
# Revision: 0
# Processed by: cddbd v1.5.1PL2 Copyright (c) Steve Scherf et al.
# Submitted via: audiograbber 1.83.01
#
DISCID=c512400e
DTITLE=Various Artist - Blues Review 2
DYEAR=2001
DGENRE=Blues
TTITLE0=Chris Anderson - Life Is Hard
TTITLE1=Gene Deer - Livin With The Blues
TTITLE2=Eddy Clearwater - Wings Of Change
TTITLE3=Tab Benoit - These Blues Are All Mine
TTITLE4=Eddie Floyd, Wilson Pickett, Jonny Lang - 634-5789
TTITLE5=Jimmy Spacek - Blues For The City
TTITLE6=Carl Weathersby, Ann Peebles - Come To Papa
TTITLE7=Monster Mike Welsh - Jessie's Blues
TTITLE8=Coco Montoya - What I Know Now
TTITLE9=Shemekia Copeland - It's My Own Tear
TTITLE10=Tony Z - Voodootize Me Baby
TTITLE11=Kenny Neal, Tab Benoit, Debbie Davies - Luberta
TTITLE12=Robben Ford - Blue and Lonesome
TTITLE13=Louisiana Gator Boys - How Blue Can You Get
EXTD=
EXTT0=
EXTT1=
EXTT2=
EXTT3=
EXTT4=
EXTT5=
EXTT6=
EXTT7=
EXTT8=
EXTT9=
EXTT10=
EXTT11=
EXTT12=
EXTT13=
PLAYORDER=
